<svg id="Layer_1" data-name="Layer 1" xmlns="http://www.w3.org/2000/svg" viewBox="0 0 330.32 261.14"><defs><style>.cls-1{fill:#4e4e4f;}.cls-2{fill:#cc8d54;}.cls-3{fill:#fdd61c;}.cls-4{fill:#ee9221;}.cls-5{fill:#cc5928;}.cls-6{fill:#f2a51e;}.cls-7{fill:#4db9be;}.cls-8{fill:#cd4127;}.cls-9{fill:#1f7e7d;}.cls-10{fill:#1a7372;}.cls-11{fill:#1d5959;}.cls-12{fill:#b92439;}.cls-13{fill:#e55e86;}.cls-14{fill:#f6b738;}.cls-15{fill:#e03d64;}.cls-16{fill:#018a88;}.cls-17{fill:#4dbbc9;}.cls-18{fill:#db2e78;}.cls-19{fill:#a52134;}.cls-20{fill:#811b35;}.cls-21{fill:#a52043;}.cls-22{fill:#95281f;}.cls-23{fill:#91201e;}.cls-24{fill:#767775;}.cls-25{fill:#8d8d8d;}.cls-26{fill:#464646;}.cls-27{fill:#747475;}.cls-28{fill:#5d5d5d;}.cls-29{fill:gray;}.cls-30{fill:#373838;}.cls-31{fill:#919191;}.cls-32{fill:#4f514f;}.cls-33{fill:#424242;}</style></defs><polygon class="cls-1" points="126.83 151.51 159.22 149.37 165.95 138.44 167.02 118.6 154.44 104.64 154.72 103.84 167.33 112.79 167.92 101.95 171.14 98.59 173.07 99.04 177.27 120.51 193.13 108.95 193.73 109.61 178.89 126.4 182.84 149.47 214.71 151.51 126.83 151.51"/><polygon class="cls-2" points="184.74 0 204.3 45.48 223.39 38.48 218.96 62.48 238.76 67.67 223.41 88.21 221.28 113.3 203.19 119.94 178.6 113.95 172.9 104.07 169.28 107.28 167.37 106.43 149.86 117.53 127.18 110.29 128.51 101.56 91.55 67.34 113.28 54.72 109.35 43.91 128.98 40.8 120.81 27.57 184.74 0"/><polygon class="cls-3" points="184.74 0 120.81 27.57 181.68 65.95 184.74 0"/><polygon class="cls-4" points="184.74 0 181.68 65.95 194.39 82.67 197.22 56.78 184.74 0"/><polygon class="cls-5" points="120.81 27.57 181.68 65.95 137.51 54.62 120.81 27.57"/><polygon class="cls-6" points="181.68 65.95 126.18 88.12 137.51 54.62 181.68 65.95"/><polygon class="cls-7" points="131.16 44.33 91.55 67.34 129.33 78.81 137.51 54.62 131.16 44.33"/><polygon class="cls-8" points="126.18 88.12 180.07 92.53 184.85 84.07 194.39 82.67 181.68 65.95 126.18 88.12"/><polygon class="cls-9" points="91.55 67.34 128.51 101.56 136.96 92.91 126.18 88.12 129.33 78.81 91.55 67.34"/><polygon class="cls-7" points="128.51 101.56 127.18 110.29 150.98 99.14 136.96 92.91 128.51 101.56"/><polygon class="cls-10" points="127.18 110.29 149.86 117.53 155.65 101.22 150.98 99.14 127.18 110.29"/><polygon class="cls-11" points="149.86 117.53 167.37 106.43 155.65 101.22 149.86 117.53"/><polygon class="cls-12" points="113.28 54.72 119.66 51.01 109.35 43.91 113.28 54.72"/><polygon class="cls-13" points="109.35 43.91 128.98 40.8 131.16 44.33 119.66 51.01 109.35 43.91"/><polygon class="cls-14" points="184.74 0 210.69 60.31 197.22 56.78 184.74 0"/><polygon class="cls-15" points="184.85 84.07 185.14 100.23 238.76 67.67 197.22 56.78 194.39 82.67 184.85 84.07"/><polygon class="cls-12" points="238.76 67.67 185.14 100.23 223.41 88.21 238.76 67.67"/><polygon class="cls-16" points="206.58 50.76 210.69 60.31 218.96 62.48 223.39 38.48 206.58 50.76"/><polygon class="cls-17" points="223.39 38.48 206.58 50.76 204.3 45.48 223.39 38.48"/><polygon class="cls-18" points="223.41 88.21 221.28 113.3 185.14 100.23 223.41 88.21"/><polygon class="cls-19" points="221.28 113.3 203.19 119.94 185.14 100.23 221.28 113.3"/><polygon class="cls-20" points="203.19 119.94 178.6 113.95 185.14 100.23 203.19 119.94"/><polygon class="cls-21" points="185.14 100.23 184.85 84.07 180.07 92.53 171.07 100.91 178.6 113.95 185.14 100.23"/><polygon class="cls-22" points="126.18 88.12 180.07 92.53 171.07 100.91 172.9 104.07 169.28 107.28 126.18 88.12"/><polygon class="cls-23" points="126.18 88.12 180.07 92.53 173.07 99.04 126.18 88.12"/><polygon class="cls-24" points="173.49 123.27 171.14 98.59 173.07 99.04 177.27 120.51 173.49 123.27"/><polygon class="cls-25" points="173.49 123.27 193.13 108.95 175.14 126.17 173.49 123.27"/><polygon class="cls-26" points="175.14 126.17 178.89 126.4 193.73 109.61 193.13 108.95 175.14 126.17"/><polygon class="cls-27" points="176.67 151.51 165.25 151.51 175.14 126.17 176.67 151.51"/><polygon class="cls-28" points="171.14 98.59 173.49 123.27 165.25 151.51 171.14 98.59"/><polygon class="cls-29" points="182.84 149.47 214.71 151.51 176.67 151.51 182.84 149.47"/><polygon class="cls-30" points="171.14 98.59 167.92 101.95 165.25 151.51 171.14 98.59"/><polygon class="cls-30" points="167.02 118.6 154.44 104.64 154.72 103.84 167.21 115.03 167.02 118.6"/><polygon class="cls-28" points="167.21 115.03 167.33 112.79 154.72 103.84 167.21 115.03"/><polygon class="cls-26" points="165.95 138.44 159.22 149.37 165.25 151.51 165.95 138.44"/><polygon class="cls-28" points="126.83 151.51 159.22 149.37 165.25 151.51 126.83 151.51"/><polygon class="cls-31" points="182.84 149.47 176.67 151.51 175.14 126.17 182.84 149.47"/><polygon class="cls-32" points="173.49 123.27 165.25 151.51 175.14 126.17 173.49 123.27"/><polygon class="cls-29" points="178.89 126.4 182.84 149.47 175.14 126.17 178.89 126.4"/><path class="cls-33" d="M17.81,244H19v1.32a2.6,2.6,0,0,1,2.33-1.48,2.41,2.41,0,0,1,2.3,1.52,2.87,2.87,0,0,1,2.55-1.52c1.61,0,2.64,1.12,2.64,3.05v5.42H27.64V247.2c0-1.51-.67-2.31-1.81-2.31s-2,.86-2,2.36v5.07H22.72v-5.14c0-1.48-.66-2.29-1.8-2.29a2.12,2.12,0,0,0-2,2.37v5.06H17.81Z" transform="translate(-16.39 -10.75)"/><path class="cls-33" d="M36.67,248.24v-.12c0-2.42,1.56-4.27,3.7-4.27s3.68,1.84,3.68,4.26v.09c0,2.43-1.56,4.29-3.7,4.29S36.67,250.66,36.67,248.24Zm6.21,0v-.08c0-1.87-1.11-3.25-2.53-3.25s-2.5,1.38-2.5,3.23v.08c0,1.87,1.1,3.26,2.52,3.26S42.88,250.05,42.88,248.22Z" transform="translate(-16.39 -10.75)"/><path class="cls-33" d="M51.6,248.25v-.16c0-2.76,1.63-4.24,3.32-4.24a3.07,3.07,0,0,1,2.69,1.71v-4.75h1.15v11.51H57.61v-1.6a3.11,3.11,0,0,1-2.69,1.76C53.23,252.48,51.6,251,51.6,248.25Zm6.06,0v-.15c0-2-1.2-3.2-2.51-3.2s-2.37,1.16-2.37,3.2v.13c0,2,1.08,3.22,2.37,3.22S57.66,250.2,57.66,248.24Z" transform="translate(-16.39 -10.75)"/><path class="cls-33" d="M66.72,248.24v-.08c0-2.54,1.49-4.31,3.43-4.31s3.33,1.79,3.33,4.29c0,.11,0,.34,0,.48H67.89c.12,1.83,1.26,2.85,2.56,2.85a3,3,0,0,0,2.16-.95l.65.73a3.77,3.77,0,0,1-2.85,1.24C68.38,252.49,66.72,250.87,66.72,248.24Zm5.61-.51c-.07-1.58-.82-2.87-2.18-2.87S68,246,67.89,247.73Z" transform="translate(-16.39 -10.75)"/><path class="cls-33" d="M81.38,244h1.15v1.83a3,3,0,0,1,2.86-1.94v1.24h-.07c-1.54,0-2.79,1.09-2.79,3.22v4H81.38Z" transform="translate(-16.39 -10.75)"/><path class="cls-33" d="M93,244h1.15v1.36a2.69,2.69,0,0,1,2.46-1.52c1.69,0,2.71,1.17,2.71,3v5.44H98.2V247.2c0-1.48-.7-2.31-1.91-2.31a2.15,2.15,0,0,0-2.11,2.37v5.06H93Z" transform="translate(-16.39 -10.75)"/><path class="cls-33" d="M117.15,244h1.24l2.33,6.82,2.36-6.82h1.21l-3.05,8.37h-1Z" transform="translate(-16.39 -10.75)"/><path class="cls-33" d="M132.05,241h1.27v1.36h-1.27Zm.06,3.06h1.15v8.31h-1.15Z" transform="translate(-16.39 -10.75)"/><path class="cls-33" d="M141.86,240.81H143v11.51h-1.15Z" transform="translate(-16.39 -10.75)"/><path class="cls-33" d="M151.62,240.81h1.14v11.51h-1.14Z" transform="translate(-16.39 -10.75)"/><path class="cls-33" d="M160.73,249.91v-.06c0-1.71,1.23-2.68,3.06-2.68a6.87,6.87,0,0,1,2.14.33V247a1.89,1.89,0,0,0-2.12-2.06,4.55,4.55,0,0,0-2.12.56l-.37-.94a5.77,5.77,0,0,1,2.62-.67,3.16,3.16,0,0,1,2.32.83,3.08,3.08,0,0,1,.8,2.25v5.34h-1.13v-1.21a2.88,2.88,0,0,1-2.54,1.38A2.54,2.54,0,0,1,160.73,249.91Zm5.22-.48v-1a5.68,5.68,0,0,0-2-.34c-1.33,0-2.06.69-2.06,1.74v0a1.67,1.67,0,0,0,1.77,1.69A2.17,2.17,0,0,0,166,249.43Z" transform="translate(-16.39 -10.75)"/><path class="cls-33" d="M175.26,253.85l.47-.93a5,5,0,0,0,2.68.82,2.27,2.27,0,0,0,2.53-2.49V250a3.16,3.16,0,0,1-2.74,1.7c-1.69,0-3.27-1.4-3.27-3.9v-.07c0-2.5,1.59-3.92,3.28-3.92a3.17,3.17,0,0,1,2.73,1.64V244h1.15v7.21a3.5,3.5,0,0,1-.91,2.57,3.81,3.81,0,0,1-2.76,1A6,6,0,0,1,175.26,253.85Zm5.71-6v0a2.66,2.66,0,0,0-2.5-2.88c-1.31,0-2.36,1.07-2.36,2.88v0c0,1.8,1.07,2.9,2.36,2.9A2.67,2.67,0,0,0,181,247.82Z" transform="translate(-16.39 -10.75)"/><path class="cls-33" d="M190.05,248.24v-.08c0-2.54,1.49-4.31,3.43-4.31,2.09,0,3.34,1.79,3.34,4.29a4.1,4.1,0,0,1,0,.48h-5.58c.13,1.83,1.26,2.85,2.57,2.85a3,3,0,0,0,2.15-.95l.65.73a3.77,3.77,0,0,1-2.85,1.24C191.71,252.49,190.05,250.87,190.05,248.24Zm5.62-.51c-.08-1.58-.83-2.87-2.19-2.87s-2.15,1.13-2.26,2.87Z" transform="translate(-16.39 -10.75)"/><path class="cls-33" d="M214.45,248.24v-.12c0-2.42,1.57-4.27,3.7-4.27s3.69,1.84,3.69,4.26v.09c0,2.43-1.57,4.29-3.7,4.29S214.45,250.66,214.45,248.24Zm6.22,0v-.08c0-1.87-1.11-3.25-2.53-3.25s-2.51,1.38-2.51,3.23v.08c0,1.87,1.1,3.26,2.52,3.26S220.67,250.05,220.67,248.22Z" transform="translate(-16.39 -10.75)"/><path class="cls-33" d="M230.2,245h-1v-1h1v-.77a2.73,2.73,0,0,1,.64-1.93,2.19,2.19,0,0,1,1.61-.59,3.87,3.87,0,0,1,1.1.16v1a3.63,3.63,0,0,0-.94-.16c-.83,0-1.26.51-1.26,1.57v.7h2.16v1h-2.15v7.29H230.2Z" transform="translate(-16.39 -10.75)"/><path class="cls-33" d="M251.39,241.16h1.2v11.16h-1.2Z" transform="translate(-16.39 -10.75)"/><path class="cls-33" d="M260.51,251.3l.6-.85a3.8,3.8,0,0,0,2.43,1c.91,0,1.54-.51,1.54-1.29v0c0-.73-.68-1.12-1.8-1.58-1.32-.57-2.37-1.1-2.37-2.39v0a2.34,2.34,0,0,1,2.58-2.27,4.55,4.55,0,0,1,2.62.9l-.56.87a3.67,3.67,0,0,0-2.09-.78c-.88,0-1.44.51-1.44,1.17v0c0,.7.72,1.05,1.85,1.53,1.37.6,2.33,1.18,2.33,2.44v0a2.45,2.45,0,0,1-2.69,2.39A4.68,4.68,0,0,1,260.51,251.3Z" transform="translate(-16.39 -10.75)"/><path class="cls-33" d="M274.37,250.39V245h-1v-1h1v-2.42h1.15V244h2.17v1h-2.17v5.17a1.06,1.06,0,0,0,1.2,1.19,2.48,2.48,0,0,0,1-.22v1a2.87,2.87,0,0,1-1.24.29A1.87,1.87,0,0,1,274.37,250.39Z" transform="translate(-16.39 -10.75)"/><path class="cls-33" d="M285.05,249.91v-.06c0-1.71,1.23-2.68,3.06-2.68a6.87,6.87,0,0,1,2.14.33V247a1.89,1.89,0,0,0-2.12-2.06,4.55,4.55,0,0,0-2.12.56l-.37-.94a5.77,5.77,0,0,1,2.62-.67,3.16,3.16,0,0,1,2.32.83,3.08,3.08,0,0,1,.8,2.25v5.34h-1.13v-1.21a2.88,2.88,0,0,1-2.54,1.38A2.54,2.54,0,0,1,285.05,249.91Zm5.21-.48v-1a5.58,5.58,0,0,0-2-.34c-1.33,0-2.06.69-2.06,1.74v0a1.67,1.67,0,0,0,1.77,1.69A2.17,2.17,0,0,0,290.26,249.43Z" transform="translate(-16.39 -10.75)"/><path class="cls-33" d="M299.67,244h1.14v1.36a2.7,2.7,0,0,1,2.46-1.52c1.69,0,2.71,1.17,2.71,3v5.44h-1.15V247.2c0-1.48-.7-2.31-1.91-2.31a2.16,2.16,0,0,0-2.11,2.37v5.06h-1.14Z" transform="translate(-16.39 -10.75)"/><path class="cls-33" d="M315.43,250.77v1.55h-1.15V240.81h1.15v4.8a3.07,3.07,0,0,1,2.69-1.76c1.69,0,3.32,1.47,3.32,4.23v.16c0,2.75-1.63,4.24-3.32,4.24A3.07,3.07,0,0,1,315.43,250.77Zm4.83-2.53v-.13c0-2-1.09-3.22-2.36-3.22s-2.52,1.26-2.52,3.2v.16c0,1.95,1.21,3.19,2.52,3.19S320.26,250.28,320.26,248.24Z" transform="translate(-16.39 -10.75)"/><path class="cls-33" d="M329.32,249.46V244h1.15v5.12c0,1.48.7,2.31,1.91,2.31a2.14,2.14,0,0,0,2.11-2.36V244h1.15v8.31h-1.15V251a2.69,2.69,0,0,1-2.46,1.52C330.34,252.48,329.32,251.31,329.32,249.46Z" transform="translate(-16.39 -10.75)"/><path class="cls-33" d="M344.14,240.81h1.15v11.51h-1.15Z" transform="translate(-16.39 -10.75)"/><path class="cls-33" d="M84.65,236.77H63.75V228.5A48.82,48.82,0,0,1,60,232.17a21.74,21.74,0,0,1-3.66,2.36,24.13,24.13,0,0,1-6,2.36,26.82,26.82,0,0,1-6.5.83,28,28,0,0,1-11-2.13,25,25,0,0,1-8.62-6,28.41,28.41,0,0,1-5.67-9,30.66,30.66,0,0,1-2.07-11.45,32.07,32.07,0,0,1,2.13-11.81,29,29,0,0,1,5.84-9.39,27.72,27.72,0,0,1,8.74-6.26A25.83,25.83,0,0,1,44,179.38q11.1,0,19.72,9V166.27L53,156.58H74.61v70.51ZM29.38,216.58a17.64,17.64,0,0,0,3.61,6,16.39,16.39,0,0,0,5.6,3.9,18.22,18.22,0,0,0,7.21,1.41,17.08,17.08,0,0,0,7.14-1.47,17.41,17.41,0,0,0,5.67-4.08,18.32,18.32,0,0,0,3.78-6.2,22,22,0,0,0,1.36-7.85,20.26,20.26,0,0,0-1.36-7.56,18,18,0,0,0-3.72-5.9A16.69,16.69,0,0,0,53,191a18.28,18.28,0,0,0-7.32-1.42,16.47,16.47,0,0,0-7,1.48,17.69,17.69,0,0,0-5.55,4,18.76,18.76,0,0,0-3.72,6.09,21.36,21.36,0,0,0-1.36,7.67A22.67,22.67,0,0,0,29.38,216.58Z" transform="translate(-16.39 -10.75)"/><path class="cls-33" d="M101,190.71,92.21,181h19.61v46.06l8.62,9.68H92.21l8.74-9.68Zm.77-33.36a6.56,6.56,0,1,1-2,4.67A6.35,6.35,0,0,1,101.72,157.35Z" transform="translate(-16.39 -10.75)"/><path class="cls-33" d="M202.63,190.71,193.3,181h20.2v7q9.92-7.8,19.37-7.8,9.67,0,13.34,8.62a49.48,49.48,0,0,1,10.51-6.61,23.91,23.91,0,0,1,9.69-2.13,17.44,17.44,0,0,1,7.67,1.66,11,11,0,0,1,5.08,4.72,21,21,0,0,1,1.12,2.36,12.68,12.68,0,0,1,.65,2.42,23.3,23.3,0,0,1,.3,3.25c0,1.26.06,2.88.06,4.84v27.76l9.8,9.68H270.3V201.34q0-6.61-1.41-9t-5.44-2.42a18.33,18.33,0,0,0-7.55,1.89,39.93,39.93,0,0,0-8.39,5.31v30l9.57,9.68H236.53V200.28q0-5.55-1.6-7.85t-5.37-2.31a17.76,17.76,0,0,0-7,1.6,51,51,0,0,0-9,5.37v30l9.8,9.68H192.59l10-9.68Z" transform="translate(-16.39 -10.75)"/><path class="cls-33" d="M346.71,236.77H327.58v-6.85a29.06,29.06,0,0,1-8.44,5.73,22.74,22.74,0,0,1-9.27,2.07,20.18,20.18,0,0,1-7.45-1.36,18.47,18.47,0,0,1-6-3.78,18.18,18.18,0,0,1-4-5.61,16,16,0,0,1-1.48-6.85,16.78,16.78,0,0,1,5.85-12.93,21.16,21.16,0,0,1,6.49-3.84,22.32,22.32,0,0,1,8-1.42c1.26,0,2.54-.06,3.84-.17s2.58-.18,3.84-.18a18.56,18.56,0,0,1,3.9.41,12.3,12.3,0,0,1,3.66,1.48V198a15.87,15.87,0,0,0-.71-5.26,5.11,5.11,0,0,0-2.25-2.83,9.61,9.61,0,0,0-3.83-1.13c-1.54-.15-3.41-.23-5.61-.23q-8,0-11.93,6.61l-10.51-2.83q7.08-13,24.09-13a31.6,31.6,0,0,1,11.1,1.77,15.53,15.53,0,0,1,7.21,5.08,24.84,24.84,0,0,1,1.71,2.59,10.79,10.79,0,0,1,1,2.78,23.39,23.39,0,0,1,.47,3.84c.08,1.49.12,3.42.12,5.78v25.87Zm-20.19-24a10.38,10.38,0,0,0-3.55-2,13.83,13.83,0,0,0-3.6-.59q-1.83-.06-3.66.06t-3.6.12a11,11,0,0,0-7.62,2.71,8.83,8.83,0,0,0-3,6.85,8.66,8.66,0,0,0,2.72,6.67,10.08,10.08,0,0,0,7.2,2.54,18.89,18.89,0,0,0,7.74-1.77,28.57,28.57,0,0,0,7.38-4.84Z" transform="translate(-16.39 -10.75)"/><path class="cls-33" d="M135.91,236.24a26.54,26.54,0,0,0,10.86,2.18A26.23,26.23,0,0,0,158,235.89a24,24,0,0,0,8.74-6.68H167v12.5h10.95c0-3.69,0-7.69,0-9.43V190.71L188,181H167v7.91q-8.75-8.85-19.73-8.86a26.37,26.37,0,0,0-19.66,8.51,29.71,29.71,0,0,0-5.84,9.39,31.27,31.27,0,0,0-2.13,11.63,32,32,0,0,0,2,11.51,27,27,0,0,0,5.67,9.1A26.58,26.58,0,0,0,135.91,236.24Zm-3.25-34.48a18.56,18.56,0,0,1,3.72-6,16.55,16.55,0,0,1,5.61-3.95,17.57,17.57,0,0,1,7.14-1.42,18,18,0,0,1,7.21,1.42,16.82,16.82,0,0,1,5.73,4,18.83,18.83,0,0,1,3.77,6.08,21.49,21.49,0,0,1-.05,15.18,18.09,18.09,0,0,1-9.75,10.1,17.91,17.91,0,0,1-7.26,1.47,17.36,17.36,0,0,1-7.09-1.41,16.43,16.43,0,0,1-5.49-4,18.46,18.46,0,0,1-3.6-6.08,22.4,22.4,0,0,1-1.3-7.8A20.67,20.67,0,0,1,132.66,201.76Z" transform="translate(-16.39 -10.75)"/><path class="cls-33" d="M164.2,255.42c-.1.13-.19.27-.3.4a15.72,15.72,0,0,1-6.26,4.55,21.7,21.7,0,0,1-8.51,1.71,25.17,25.17,0,0,1-15.94-5.67l-7.09,8a42.23,42.23,0,0,0,4,2.83,28.39,28.39,0,0,0,3.43,1.66,35.59,35.59,0,0,0,14.64,2.95,38.14,38.14,0,0,0,14.17-2.72A24.28,24.28,0,0,0,173,261.72a45.55,45.55,0,0,0,2.66-3.72,12,12,0,0,0,1.2-2.58Z" transform="translate(-16.39 -10.75)"/></svg>